<svg xmlns="http://www.w3.org/2000/svg" viewBox="0 0 1933.5 420.75"><title>cta-bg</title><rect x="0.5" width="1933" height="414" style="fill:#fff"/><rect x="0.5" width="1933" height="414" style="fill:#fff"/><path d="M0,74.48A72.5,72.5,0,0,1,72.5,147,72.49,72.49,0,0,1,0,219.48" style="fill:none;stroke:#2e3192;stroke-miterlimit:10;stroke-width:94px;opacity:0.4"/><path d="M0,224a72.5,72.5,0,0,1,72.5,72.5A72.5,72.5,0,0,1,0,369" style="fill:none;stroke:#2e3192;stroke-miterlimit:10;stroke-width:94px;opacity:0.4"/><path d="M629.25,414.25a141.5,141.5,0,0,0-283,0" style="fill:#fcee21;stroke:#fcee21;stroke-miterlimit:10;stroke-width:94px;opacity:0.4"/><path d="M1179.25,420.75C1179.25,290,1285.25,184,1416,184s236.75,106,236.75,236.75" style="fill:none;stroke:#f15a24;stroke-miterlimit:10;stroke-width:212px;opacity:0.4"/><path d="M1933.5,74a110.5,110.5,0,0,0,0,221" style="fill:#39b54a;stroke:#39b54a;stroke-miterlimit:10;stroke-width:94px;opacity:0.4"/><path d="M772.45,237a89.12,89.12,0,1,0,3.64-178.21" style="fill:#fcee21;stroke:#fcee21;stroke-miterlimit:10;stroke-width:94px;opacity:0.4"/><path d="M719.56,235.89a89.12,89.12,0,1,0,3.63-178.21" style="fill:#fcee21;stroke:#fcee21;stroke-miterlimit:10;stroke-width:94px;opacity:0.4"/></svg>